<?xml version="1.0" encoding="UTF-8" standalone="no"?>
<!DOCTYPE svg PUBLIC "-//W3C//DTD SVG 1.1//EN" "http://www.w3.org/Graphics/SVG/1.1/DTD/svg11.dtd">
<svg width="100%" height="100%" viewBox="0 0 39 39" version="1.1" xmlns="http://www.w3.org/2000/svg" xmlns:xlink="http://www.w3.org/1999/xlink" xml:space="preserve" xmlns:serif="http://www.serif.com/" style="fill-rule:evenodd;clip-rule:evenodd;stroke-linejoin:round;stroke-miterlimit:2;">
    <g transform="matrix(0.944769,0,0,0.944769,1.04982,1.05056)">
        <path d="M37.772,35.321C37.549,34.452 34.829,33.221 34.829,33.221C33.752,33.344 33.12,32.534 33.12,32.534C32.542,31.878 32.2,32.731 32.2,32.731C31.679,33.692 29.508,34.249 29.508,34.249C28.055,36.102 27.915,35.591 27.915,35.591C27.292,33.958 30.881,28.289 30.881,28.289C26.29,19.492 12.521,12.751 12.521,12.751C12.639,12.234 13.725,11.289 13.725,11.289L13.511,10.805C11.84,10.71 10.302,17.417 10.302,17.417C8.477,16.041 8.663,11.105 8.663,11.105C7.621,10.355 3.947,9.248 2.281,9.15C1.072,9.08 0.562,8.924 0.239,8.498C-1.025,6.833 3.146,6.13 3.146,6.13C7.143,-0.935 18.236,4.216 18.236,4.216C21.548,1.531 24.548,2.576 24.548,2.576C26.82,3.277 25.44,3.509 25.44,3.509C23.065,4.223 22.864,7.052 22.864,7.052C33.161,14.812 32.583,25.919 32.583,25.919C32.645,26.906 32.572,27.809 32.572,27.809C36.184,29.973 37.527,33.168 37.527,33.168C38.495,35.537 37.772,35.321 37.772,35.321ZM12.236,23.274C6.484,26.009 1.819,24.187 1.819,24.431C1.819,25.465 6.483,28.326 12.236,25.588C17.989,22.853 22.653,24.675 22.653,24.431C22.652,23.397 17.989,20.537 12.236,23.274ZM12.236,28.234C6.484,30.971 1.819,29.147 1.819,29.391C1.819,30.425 6.483,33.286 12.236,30.549C17.989,27.813 22.653,29.635 22.653,29.391C22.652,28.357 17.989,25.497 12.236,28.234Z" style="fill:white;fill-rule:nonzero;"/>
    </g>
</svg>
